<svg width="70" height="110" viewBox="0 0 70 110" fill="none" xmlns="http://www.w3.org/2000/svg">
<rect width="70" height="109" fill="#EBEBEB"/>
<path d="M26.7614 33.324C25.1954 33.324 23.8004 32.937 22.5764 32.163C21.3524 31.389 20.3894 30.273 19.6874 28.815C19.0034 27.339 18.6614 25.584 18.6614 23.55C18.6614 21.516 19.0034 19.77 19.6874 18.312C20.3894 16.836 21.3524 15.711 22.5764 14.937C23.8004 14.163 25.1954 13.776 26.7614 13.776C28.3274 13.776 29.7224 14.163 30.9464 14.937C32.1704 15.711 33.1244 16.836 33.8084 18.312C34.5104 19.77 34.8614 21.516 34.8614 23.55C34.8614 25.584 34.5104 27.339 33.8084 28.815C33.1244 30.273 32.1704 31.389 30.9464 32.163C29.7224 32.937 28.3274 33.324 26.7614 33.324ZM26.7614 29.625C27.9134 29.625 28.8134 29.13 29.4614 28.14C30.1274 27.15 30.4604 25.62 30.4604 23.55C30.4604 21.48 30.1274 19.95 29.4614 18.96C28.8134 17.97 27.9134 17.475 26.7614 17.475C25.6274 17.475 24.7274 17.97 24.0614 18.96C23.4134 19.95 23.0894 21.48 23.0894 23.55C23.0894 25.62 23.4134 27.15 24.0614 28.14C24.7274 29.13 25.6274 29.625 26.7614 29.625ZM51.6771 14.1V16.935L44.6571 33H39.9051L46.6821 17.664H40.4181V20.742H36.5301V14.1H51.6771Z" fill="#2D2D2D"/>
<path d="M31.1068 51.9998V61.7998H30.2528L23.9528 53.8478V61.7998H22.9168V51.9998H23.7708L30.0848 59.9518V51.9998H31.1068ZM37.1055 61.8698C36.3961 61.8698 35.7568 61.7111 35.1875 61.3938C34.6181 61.0671 34.1701 60.6191 33.8435 60.0498C33.5168 59.4805 33.3535 58.8365 33.3535 58.1178C33.3535 57.3991 33.5168 56.7551 33.8435 56.1858C34.1701 55.6165 34.6181 55.1731 35.1875 54.8558C35.7568 54.5385 36.3961 54.3798 37.1055 54.3798C37.8148 54.3798 38.4541 54.5385 39.0235 54.8558C39.5928 55.1731 40.0361 55.6165 40.3535 56.1858C40.6801 56.7551 40.8435 57.3991 40.8435 58.1178C40.8435 58.8365 40.6801 59.4805 40.3535 60.0498C40.0361 60.6191 39.5928 61.0671 39.0235 61.3938C38.4541 61.7111 37.8148 61.8698 37.1055 61.8698ZM37.1055 60.9878C37.6281 60.9878 38.0948 60.8711 38.5055 60.6378C38.9255 60.3951 39.2521 60.0545 39.4855 59.6158C39.7188 59.1771 39.8355 58.6778 39.8355 58.1178C39.8355 57.5578 39.7188 57.0585 39.4855 56.6198C39.2521 56.1811 38.9255 55.8451 38.5055 55.6118C38.0948 55.3691 37.6281 55.2478 37.1055 55.2478C36.5828 55.2478 36.1115 55.3691 35.6915 55.6118C35.2808 55.8451 34.9541 56.1811 34.7115 56.6198C34.4781 57.0585 34.3615 57.5578 34.3615 58.1178C34.3615 58.6778 34.4781 59.1771 34.7115 59.6158C34.9541 60.0545 35.2808 60.3951 35.6915 60.6378C36.1115 60.8711 36.5828 60.9878 37.1055 60.9878ZM48.8557 54.4358L45.5797 61.7998H44.5577L41.2957 54.4358H42.3317L45.0897 60.7078L47.8757 54.4358H48.8557Z" fill="#2D2D2D"/>
<rect width="70" height="34" transform="translate(0 75.7998)" fill="#DADADA"/>
<path d="M26.0133 96.9038V97.7998H19.1393V97.0858L23.2133 93.0958C23.7266 92.5918 24.0719 92.1578 24.2493 91.7938C24.4359 91.4205 24.5293 91.0471 24.5293 90.6738C24.5293 90.0951 24.3286 89.6471 23.9273 89.3298C23.5353 89.0031 22.9706 88.8398 22.2333 88.8398C21.0853 88.8398 20.1939 89.2038 19.5593 89.9318L18.8453 89.3158C19.2279 88.8678 19.7133 88.5225 20.3013 88.2798C20.8986 88.0371 21.5706 87.9158 22.3173 87.9158C23.3159 87.9158 24.1046 88.1538 24.6833 88.6298C25.2713 89.0965 25.5653 89.7405 25.5653 90.5618C25.5653 91.0658 25.4533 91.5511 25.2293 92.0178C25.0053 92.4845 24.5806 93.0211 23.9553 93.6278L20.6233 96.9038H26.0133ZM31.1296 97.8838C30.3736 97.8838 29.6969 97.6831 29.0996 97.2818C28.5116 96.8805 28.0496 96.3065 27.7136 95.5598C27.3869 94.8038 27.2236 93.9171 27.2236 92.8998C27.2236 91.8825 27.3869 91.0005 27.7136 90.2538C28.0496 89.4978 28.5116 88.9191 29.0996 88.5178C29.6969 88.1165 30.3736 87.9158 31.1296 87.9158C31.8856 87.9158 32.5576 88.1165 33.1456 88.5178C33.7429 88.9191 34.2096 89.4978 34.5456 90.2538C34.8816 91.0005 35.0496 91.8825 35.0496 92.8998C35.0496 93.9171 34.8816 94.8038 34.5456 95.5598C34.2096 96.3065 33.7429 96.8805 33.1456 97.2818C32.5576 97.6831 31.8856 97.8838 31.1296 97.8838ZM31.1296 96.9598C31.6989 96.9598 32.1983 96.8011 32.6276 96.4838C33.0663 96.1665 33.4069 95.7045 33.6496 95.0978C33.8923 94.4911 34.0136 93.7585 34.0136 92.8998C34.0136 92.0411 33.8923 91.3085 33.6496 90.7018C33.4069 90.0951 33.0663 89.6331 32.6276 89.3158C32.1983 88.9985 31.6989 88.8398 31.1296 88.8398C30.5603 88.8398 30.0563 88.9985 29.6176 89.3158C29.1883 89.6331 28.8523 90.0951 28.6096 90.7018C28.3669 91.3085 28.2456 92.0411 28.2456 92.8998C28.2456 93.7585 28.3669 94.4911 28.6096 95.0978C28.8523 95.7045 29.1883 96.1665 29.6176 96.4838C30.0563 96.8011 30.5603 96.9598 31.1296 96.9598ZM43.1578 96.9038V97.7998H36.2838V97.0858L40.3578 93.0958C40.8711 92.5918 41.2165 92.1578 41.3938 91.7938C41.5805 91.4205 41.6738 91.0471 41.6738 90.6738C41.6738 90.0951 41.4731 89.6471 41.0718 89.3298C40.6798 89.0031 40.1151 88.8398 39.3778 88.8398C38.2298 88.8398 37.3385 89.2038 36.7038 89.9318L35.9898 89.3158C36.3725 88.8678 36.8578 88.5225 37.4458 88.2798C38.0431 88.0371 38.7151 87.9158 39.4618 87.9158C40.4605 87.9158 41.2491 88.1538 41.8278 88.6298C42.4158 89.0965 42.7098 89.7405 42.7098 90.5618C42.7098 91.0658 42.5978 91.5511 42.3738 92.0178C42.1498 92.4845 41.7251 93.0211 41.0998 93.6278L37.7678 96.9038H43.1578ZM47.7548 92.1998C48.7815 92.2558 49.5608 92.5358 50.0928 93.0398C50.6342 93.5345 50.9048 94.1831 50.9048 94.9858C50.9048 95.5458 50.7695 96.0451 50.4988 96.4838C50.2282 96.9131 49.8268 97.2538 49.2948 97.5058C48.7628 97.7578 48.1142 97.8838 47.3488 97.8838C46.6395 97.8838 45.9675 97.7718 45.3328 97.5478C44.7075 97.3145 44.2035 97.0065 43.8208 96.6238L44.3108 95.8258C44.6375 96.1618 45.0715 96.4371 45.6128 96.6518C46.1542 96.8571 46.7328 96.9598 47.3488 96.9598C48.1515 96.9598 48.7722 96.7871 49.2108 96.4418C49.6495 96.0871 49.8688 95.6018 49.8688 94.9858C49.8688 94.3791 49.6495 93.9031 49.2108 93.5578C48.7722 93.2125 48.1095 93.0398 47.2228 93.0398H46.5228V92.2978L49.2388 88.8958H44.2268V87.9998H50.5268V88.7138L47.7548 92.1998Z" fill="#595959"/>
</svg>
